<mxfile host="Electron" modified="2024-03-26T22:27:34.784Z" agent="Mozilla/5.0 (Windows NT 10.0; Win64; x64) AppleWebKit/537.36 (KHTML, like Gecko) draw.io/24.1.0 Chrome/120.0.6099.109 Electron/28.1.0 Safari/537.36" etag="-2gCB4cvJhnh3W7b5LRN" version="24.1.0" type="device">
  <diagram id="C5RBs43oDa-KdzZeNtuy" name="Page-1">
    <mxGraphModel dx="1395" dy="697" grid="1" gridSize="10" guides="1" tooltips="1" connect="1" arrows="1" fold="1" page="1" pageScale="1" pageWidth="827" pageHeight="1169" math="0" shadow="0">
      <root>
        <mxCell id="WIyWlLk6GJQsqaUBKTNV-0" />
        <mxCell id="WIyWlLk6GJQsqaUBKTNV-1" parent="WIyWlLk6GJQsqaUBKTNV-0" />
        <mxCell id="WIyWlLk6GJQsqaUBKTNV-2" value="" style="rounded=0;html=1;jettySize=auto;orthogonalLoop=1;fontSize=11;endArrow=block;endFill=0;endSize=8;strokeWidth=1;shadow=0;labelBackgroundColor=none;edgeStyle=orthogonalEdgeStyle;" parent="WIyWlLk6GJQsqaUBKTNV-1" source="WIyWlLk6GJQsqaUBKTNV-3" target="WIyWlLk6GJQsqaUBKTNV-6" edge="1">
          <mxGeometry relative="1" as="geometry" />
        </mxCell>
        <mxCell id="WIyWlLk6GJQsqaUBKTNV-3" value="&lt;font style=&quot;font-size: 10px;&quot;&gt;Usuario ve carta&lt;/font&gt;" style="rounded=1;whiteSpace=wrap;html=1;fontSize=12;glass=0;strokeWidth=1;shadow=0;" parent="WIyWlLk6GJQsqaUBKTNV-1" vertex="1">
          <mxGeometry x="288" y="70" width="120" height="40" as="geometry" />
        </mxCell>
        <mxCell id="WIyWlLk6GJQsqaUBKTNV-4" value="Si" style="rounded=0;html=1;jettySize=auto;orthogonalLoop=1;fontSize=11;endArrow=block;endFill=0;endSize=8;strokeWidth=1;shadow=0;labelBackgroundColor=none;edgeStyle=orthogonalEdgeStyle;" parent="WIyWlLk6GJQsqaUBKTNV-1" source="WIyWlLk6GJQsqaUBKTNV-6" target="WIyWlLk6GJQsqaUBKTNV-10" edge="1">
          <mxGeometry y="20" relative="1" as="geometry">
            <mxPoint as="offset" />
          </mxGeometry>
        </mxCell>
        <mxCell id="WIyWlLk6GJQsqaUBKTNV-5" value="No" style="edgeStyle=orthogonalEdgeStyle;rounded=0;html=1;jettySize=auto;orthogonalLoop=1;fontSize=11;endArrow=block;endFill=0;endSize=8;strokeWidth=1;shadow=0;labelBackgroundColor=none;entryX=0;entryY=0.5;entryDx=0;entryDy=0;" parent="WIyWlLk6GJQsqaUBKTNV-1" source="WIyWlLk6GJQsqaUBKTNV-6" target="WIyWlLk6GJQsqaUBKTNV-12" edge="1">
          <mxGeometry x="-0.1111" y="10" relative="1" as="geometry">
            <mxPoint as="offset" />
          </mxGeometry>
        </mxCell>
        <mxCell id="WIyWlLk6GJQsqaUBKTNV-6" value="&lt;font style=&quot;font-size: 10px;&quot;&gt;¿Productos listos?&lt;/font&gt;" style="rhombus;whiteSpace=wrap;html=1;shadow=0;fontFamily=Helvetica;fontSize=12;align=center;strokeWidth=1;spacing=6;spacingTop=-4;" parent="WIyWlLk6GJQsqaUBKTNV-1" vertex="1">
          <mxGeometry x="298" y="140" width="100" height="80" as="geometry" />
        </mxCell>
        <mxCell id="WIyWlLk6GJQsqaUBKTNV-8" value="Tarjeta" style="rounded=0;html=1;jettySize=auto;orthogonalLoop=1;fontSize=11;endArrow=block;endFill=0;endSize=8;strokeWidth=1;shadow=0;labelBackgroundColor=none;edgeStyle=orthogonalEdgeStyle;" parent="WIyWlLk6GJQsqaUBKTNV-1" source="WIyWlLk6GJQsqaUBKTNV-10" target="WIyWlLk6GJQsqaUBKTNV-11" edge="1">
          <mxGeometry y="20" relative="1" as="geometry">
            <mxPoint as="offset" />
          </mxGeometry>
        </mxCell>
        <mxCell id="xAAVF2irVC5-viqiM9Qj-14" value="" style="edgeStyle=orthogonalEdgeStyle;rounded=0;orthogonalLoop=1;jettySize=auto;html=1;" edge="1" parent="WIyWlLk6GJQsqaUBKTNV-1" source="WIyWlLk6GJQsqaUBKTNV-10" target="xAAVF2irVC5-viqiM9Qj-13">
          <mxGeometry relative="1" as="geometry" />
        </mxCell>
        <mxCell id="xAAVF2irVC5-viqiM9Qj-15" value="Efectivo" style="edgeLabel;html=1;align=center;verticalAlign=middle;resizable=0;points=[];" vertex="1" connectable="0" parent="xAAVF2irVC5-viqiM9Qj-14">
          <mxGeometry x="-0.0898" y="2" relative="1" as="geometry">
            <mxPoint y="-12" as="offset" />
          </mxGeometry>
        </mxCell>
        <mxCell id="WIyWlLk6GJQsqaUBKTNV-10" value="&lt;font style=&quot;font-size: 10px;&quot;&gt;Método de pago online&lt;/font&gt;" style="rhombus;whiteSpace=wrap;html=1;shadow=0;fontFamily=Helvetica;fontSize=12;align=center;strokeWidth=1;spacing=6;spacingTop=-4;" parent="WIyWlLk6GJQsqaUBKTNV-1" vertex="1">
          <mxGeometry x="298" y="260" width="100" height="80" as="geometry" />
        </mxCell>
        <mxCell id="xAAVF2irVC5-viqiM9Qj-2" value="" style="edgeStyle=orthogonalEdgeStyle;rounded=0;orthogonalLoop=1;jettySize=auto;html=1;" edge="1" parent="WIyWlLk6GJQsqaUBKTNV-1" source="WIyWlLk6GJQsqaUBKTNV-11" target="xAAVF2irVC5-viqiM9Qj-0">
          <mxGeometry relative="1" as="geometry" />
        </mxCell>
        <mxCell id="xAAVF2irVC5-viqiM9Qj-3" value="Si" style="edgeLabel;html=1;align=center;verticalAlign=middle;resizable=0;points=[];" vertex="1" connectable="0" parent="xAAVF2irVC5-viqiM9Qj-2">
          <mxGeometry x="-0.0857" relative="1" as="geometry">
            <mxPoint x="10" as="offset" />
          </mxGeometry>
        </mxCell>
        <mxCell id="xAAVF2irVC5-viqiM9Qj-4" style="edgeStyle=orthogonalEdgeStyle;rounded=0;orthogonalLoop=1;jettySize=auto;html=1;exitX=1;exitY=0.25;exitDx=0;exitDy=0;" edge="1" parent="WIyWlLk6GJQsqaUBKTNV-1" source="WIyWlLk6GJQsqaUBKTNV-11">
          <mxGeometry relative="1" as="geometry">
            <mxPoint x="288" y="540" as="sourcePoint" />
            <mxPoint x="398" y="300" as="targetPoint" />
            <Array as="points">
              <mxPoint x="408" y="410" />
              <mxPoint x="428" y="410" />
              <mxPoint x="428" y="300" />
            </Array>
          </mxGeometry>
        </mxCell>
        <mxCell id="xAAVF2irVC5-viqiM9Qj-6" value="No" style="edgeLabel;html=1;align=center;verticalAlign=middle;resizable=0;points=[];" vertex="1" connectable="0" parent="xAAVF2irVC5-viqiM9Qj-4">
          <mxGeometry x="-0.1173" relative="1" as="geometry">
            <mxPoint x="22" y="-60" as="offset" />
          </mxGeometry>
        </mxCell>
        <mxCell id="WIyWlLk6GJQsqaUBKTNV-11" value="&lt;font style=&quot;font-size: 10px;&quot;&gt;Pasar a pasarela de pago&lt;/font&gt;" style="rounded=1;whiteSpace=wrap;html=1;fontSize=12;glass=0;strokeWidth=1;shadow=0;" parent="WIyWlLk6GJQsqaUBKTNV-1" vertex="1">
          <mxGeometry x="288" y="400" width="120" height="40" as="geometry" />
        </mxCell>
        <mxCell id="WIyWlLk6GJQsqaUBKTNV-12" value="&lt;font style=&quot;font-size: 10px;&quot;&gt;Sistema en espera&lt;/font&gt;" style="rounded=1;whiteSpace=wrap;html=1;fontSize=12;glass=0;strokeWidth=1;shadow=0;" parent="WIyWlLk6GJQsqaUBKTNV-1" vertex="1">
          <mxGeometry x="488" y="160" width="120" height="40" as="geometry" />
        </mxCell>
        <mxCell id="xAAVF2irVC5-viqiM9Qj-10" value="" style="edgeStyle=orthogonalEdgeStyle;rounded=0;orthogonalLoop=1;jettySize=auto;html=1;" edge="1" parent="WIyWlLk6GJQsqaUBKTNV-1" source="xAAVF2irVC5-viqiM9Qj-0" target="xAAVF2irVC5-viqiM9Qj-9">
          <mxGeometry relative="1" as="geometry" />
        </mxCell>
        <mxCell id="xAAVF2irVC5-viqiM9Qj-34" value="Si" style="edgeLabel;html=1;align=center;verticalAlign=middle;resizable=0;points=[];" vertex="1" connectable="0" parent="xAAVF2irVC5-viqiM9Qj-10">
          <mxGeometry x="-0.04" relative="1" as="geometry">
            <mxPoint x="10" as="offset" />
          </mxGeometry>
        </mxCell>
        <mxCell id="xAAVF2irVC5-viqiM9Qj-19" value="" style="edgeStyle=orthogonalEdgeStyle;rounded=0;orthogonalLoop=1;jettySize=auto;html=1;" edge="1" parent="WIyWlLk6GJQsqaUBKTNV-1" source="xAAVF2irVC5-viqiM9Qj-0" target="xAAVF2irVC5-viqiM9Qj-18">
          <mxGeometry relative="1" as="geometry" />
        </mxCell>
        <mxCell id="xAAVF2irVC5-viqiM9Qj-20" value="No" style="edgeLabel;html=1;align=center;verticalAlign=middle;resizable=0;points=[];" vertex="1" connectable="0" parent="xAAVF2irVC5-viqiM9Qj-19">
          <mxGeometry x="-0.1107" y="2" relative="1" as="geometry">
            <mxPoint y="-18" as="offset" />
          </mxGeometry>
        </mxCell>
        <mxCell id="xAAVF2irVC5-viqiM9Qj-0" value="&lt;font style=&quot;font-size: 10px;&quot;&gt;¿Tarjeta aceptada?&lt;/font&gt;" style="rhombus;whiteSpace=wrap;html=1;rounded=1;glass=0;strokeWidth=1;shadow=0;arcSize=0;" vertex="1" parent="WIyWlLk6GJQsqaUBKTNV-1">
          <mxGeometry x="308" y="500" width="80" height="80" as="geometry" />
        </mxCell>
        <mxCell id="xAAVF2irVC5-viqiM9Qj-45" value="" style="edgeStyle=orthogonalEdgeStyle;rounded=0;orthogonalLoop=1;jettySize=auto;html=1;" edge="1" parent="WIyWlLk6GJQsqaUBKTNV-1" source="xAAVF2irVC5-viqiM9Qj-9" target="xAAVF2irVC5-viqiM9Qj-44">
          <mxGeometry relative="1" as="geometry" />
        </mxCell>
        <mxCell id="xAAVF2irVC5-viqiM9Qj-9" value="&lt;font style=&quot;font-size: 10px;&quot;&gt;Mostrar nº pedido al usuario&lt;/font&gt;" style="whiteSpace=wrap;html=1;rounded=1;glass=0;strokeWidth=1;shadow=0;arcSize=17;" vertex="1" parent="WIyWlLk6GJQsqaUBKTNV-1">
          <mxGeometry x="288" y="630" width="120" height="60" as="geometry" />
        </mxCell>
        <mxCell id="xAAVF2irVC5-viqiM9Qj-30" value="" style="edgeStyle=orthogonalEdgeStyle;rounded=0;orthogonalLoop=1;jettySize=auto;html=1;" edge="1" parent="WIyWlLk6GJQsqaUBKTNV-1" source="xAAVF2irVC5-viqiM9Qj-13" target="xAAVF2irVC5-viqiM9Qj-29">
          <mxGeometry relative="1" as="geometry" />
        </mxCell>
        <mxCell id="xAAVF2irVC5-viqiM9Qj-13" value="&lt;font style=&quot;font-size: 10px;&quot;&gt;Mostrar recibo por pantalla a pagar&lt;/font&gt;" style="rounded=1;whiteSpace=wrap;html=1;shadow=0;strokeWidth=1;spacing=6;spacingTop=-4;" vertex="1" parent="WIyWlLk6GJQsqaUBKTNV-1">
          <mxGeometry x="138" y="275" width="90" height="50" as="geometry" />
        </mxCell>
        <mxCell id="xAAVF2irVC5-viqiM9Qj-21" style="edgeStyle=orthogonalEdgeStyle;rounded=0;orthogonalLoop=1;jettySize=auto;html=1;entryX=1;entryY=0.5;entryDx=0;entryDy=0;exitX=0.5;exitY=0;exitDx=0;exitDy=0;" edge="1" parent="WIyWlLk6GJQsqaUBKTNV-1" source="xAAVF2irVC5-viqiM9Qj-18">
          <mxGeometry relative="1" as="geometry">
            <mxPoint x="508" y="510" as="sourcePoint" />
            <mxPoint x="408" y="430" as="targetPoint" />
            <Array as="points">
              <mxPoint x="508" y="430" />
            </Array>
          </mxGeometry>
        </mxCell>
        <mxCell id="xAAVF2irVC5-viqiM9Qj-22" value="Si" style="edgeLabel;html=1;align=center;verticalAlign=middle;resizable=0;points=[];" vertex="1" connectable="0" parent="xAAVF2irVC5-viqiM9Qj-21">
          <mxGeometry x="-0.53" y="-1" relative="1" as="geometry">
            <mxPoint x="9" as="offset" />
          </mxGeometry>
        </mxCell>
        <mxCell id="xAAVF2irVC5-viqiM9Qj-24" value="" style="edgeStyle=orthogonalEdgeStyle;rounded=0;orthogonalLoop=1;jettySize=auto;html=1;" edge="1" parent="WIyWlLk6GJQsqaUBKTNV-1" source="xAAVF2irVC5-viqiM9Qj-18" target="xAAVF2irVC5-viqiM9Qj-23">
          <mxGeometry relative="1" as="geometry" />
        </mxCell>
        <mxCell id="xAAVF2irVC5-viqiM9Qj-18" value="&lt;font style=&quot;font-size: 10px;&quot;&gt;¿Desea reintentar?&lt;/font&gt;" style="rhombus;whiteSpace=wrap;html=1;rounded=1;glass=0;strokeWidth=1;shadow=0;arcSize=0;" vertex="1" parent="WIyWlLk6GJQsqaUBKTNV-1">
          <mxGeometry x="468" y="500" width="80" height="80" as="geometry" />
        </mxCell>
        <mxCell id="xAAVF2irVC5-viqiM9Qj-25" style="edgeStyle=orthogonalEdgeStyle;rounded=0;orthogonalLoop=1;jettySize=auto;html=1;entryX=0.5;entryY=0;entryDx=0;entryDy=0;" edge="1" parent="WIyWlLk6GJQsqaUBKTNV-1" source="xAAVF2irVC5-viqiM9Qj-23" target="WIyWlLk6GJQsqaUBKTNV-10">
          <mxGeometry relative="1" as="geometry">
            <mxPoint x="668" y="350" as="targetPoint" />
            <Array as="points">
              <mxPoint x="668" y="260" />
            </Array>
          </mxGeometry>
        </mxCell>
        <mxCell id="xAAVF2irVC5-viqiM9Qj-26" value="Si" style="edgeLabel;html=1;align=center;verticalAlign=middle;resizable=0;points=[];" vertex="1" connectable="0" parent="xAAVF2irVC5-viqiM9Qj-25">
          <mxGeometry x="-0.4693" y="1" relative="1" as="geometry">
            <mxPoint x="11" as="offset" />
          </mxGeometry>
        </mxCell>
        <mxCell id="xAAVF2irVC5-viqiM9Qj-27" style="edgeStyle=orthogonalEdgeStyle;rounded=0;orthogonalLoop=1;jettySize=auto;html=1;entryX=0.5;entryY=0;entryDx=0;entryDy=0;" edge="1" parent="WIyWlLk6GJQsqaUBKTNV-1" source="xAAVF2irVC5-viqiM9Qj-23" target="xAAVF2irVC5-viqiM9Qj-54">
          <mxGeometry relative="1" as="geometry">
            <mxPoint x="668" y="710" as="targetPoint" />
          </mxGeometry>
        </mxCell>
        <mxCell id="xAAVF2irVC5-viqiM9Qj-28" value="No" style="edgeLabel;html=1;align=center;verticalAlign=middle;resizable=0;points=[];" vertex="1" connectable="0" parent="xAAVF2irVC5-viqiM9Qj-27">
          <mxGeometry x="-0.0274" y="1" relative="1" as="geometry">
            <mxPoint x="9" y="-3" as="offset" />
          </mxGeometry>
        </mxCell>
        <mxCell id="xAAVF2irVC5-viqiM9Qj-23" value="&lt;font style=&quot;font-size: 10px;&quot;&gt;¿Desea cambiar método de pago?&lt;/font&gt;" style="rhombus;whiteSpace=wrap;html=1;rounded=1;glass=0;strokeWidth=1;shadow=0;arcSize=0;align=center;" vertex="1" parent="WIyWlLk6GJQsqaUBKTNV-1">
          <mxGeometry x="628" y="500" width="80" height="80" as="geometry" />
        </mxCell>
        <mxCell id="xAAVF2irVC5-viqiM9Qj-32" value="" style="edgeStyle=orthogonalEdgeStyle;rounded=0;orthogonalLoop=1;jettySize=auto;html=1;" edge="1" parent="WIyWlLk6GJQsqaUBKTNV-1" source="xAAVF2irVC5-viqiM9Qj-29" target="xAAVF2irVC5-viqiM9Qj-31">
          <mxGeometry relative="1" as="geometry" />
        </mxCell>
        <mxCell id="xAAVF2irVC5-viqiM9Qj-33" value="Si" style="edgeLabel;html=1;align=center;verticalAlign=middle;resizable=0;points=[];" vertex="1" connectable="0" parent="xAAVF2irVC5-viqiM9Qj-32">
          <mxGeometry x="-0.1429" relative="1" as="geometry">
            <mxPoint x="15" as="offset" />
          </mxGeometry>
        </mxCell>
        <mxCell id="xAAVF2irVC5-viqiM9Qj-36" style="edgeStyle=orthogonalEdgeStyle;rounded=0;orthogonalLoop=1;jettySize=auto;html=1;" edge="1" parent="WIyWlLk6GJQsqaUBKTNV-1" source="xAAVF2irVC5-viqiM9Qj-29">
          <mxGeometry relative="1" as="geometry">
            <mxPoint x="248" y="430" as="targetPoint" />
          </mxGeometry>
        </mxCell>
        <mxCell id="xAAVF2irVC5-viqiM9Qj-41" value="No" style="edgeLabel;html=1;align=center;verticalAlign=middle;resizable=0;points=[];" vertex="1" connectable="0" parent="xAAVF2irVC5-viqiM9Qj-36">
          <mxGeometry x="-0.3894" relative="1" as="geometry">
            <mxPoint x="-3" y="-10" as="offset" />
          </mxGeometry>
        </mxCell>
        <mxCell id="xAAVF2irVC5-viqiM9Qj-29" value="&lt;font style=&quot;font-size: 10px;&quot;&gt;¿Empleado Tacogos confirma venta?&lt;/font&gt;" style="rhombus;whiteSpace=wrap;html=1;rounded=1;shadow=0;strokeWidth=1;spacing=6;spacingTop=-4;arcSize=2;" vertex="1" parent="WIyWlLk6GJQsqaUBKTNV-1">
          <mxGeometry x="143" y="390" width="80" height="80" as="geometry" />
        </mxCell>
        <mxCell id="xAAVF2irVC5-viqiM9Qj-38" style="edgeStyle=orthogonalEdgeStyle;rounded=0;orthogonalLoop=1;jettySize=auto;html=1;entryX=0;entryY=0.5;entryDx=0;entryDy=0;" edge="1" parent="WIyWlLk6GJQsqaUBKTNV-1" source="xAAVF2irVC5-viqiM9Qj-31" target="xAAVF2irVC5-viqiM9Qj-9">
          <mxGeometry relative="1" as="geometry">
            <Array as="points">
              <mxPoint x="183" y="660" />
            </Array>
          </mxGeometry>
        </mxCell>
        <mxCell id="xAAVF2irVC5-viqiM9Qj-31" value="&lt;font style=&quot;font-size: 10px;&quot;&gt;Enviar confirmación del ticket a cocina&lt;/font&gt;" style="rounded=1;whiteSpace=wrap;html=1;shadow=0;strokeWidth=1;spacing=6;spacingTop=-4;arcSize=21;" vertex="1" parent="WIyWlLk6GJQsqaUBKTNV-1">
          <mxGeometry x="130" y="520" width="106" height="60" as="geometry" />
        </mxCell>
        <mxCell id="xAAVF2irVC5-viqiM9Qj-35" value="1" style="ellipse;whiteSpace=wrap;html=1;aspect=fixed;" vertex="1" parent="WIyWlLk6GJQsqaUBKTNV-1">
          <mxGeometry x="608" y="140" width="20" height="20" as="geometry" />
        </mxCell>
        <mxCell id="xAAVF2irVC5-viqiM9Qj-37" value="1" style="ellipse;whiteSpace=wrap;html=1;aspect=fixed;" vertex="1" parent="WIyWlLk6GJQsqaUBKTNV-1">
          <mxGeometry x="248" y="420" width="20" height="20" as="geometry" />
        </mxCell>
        <mxCell id="xAAVF2irVC5-viqiM9Qj-47" value="" style="edgeStyle=orthogonalEdgeStyle;rounded=0;orthogonalLoop=1;jettySize=auto;html=1;" edge="1" parent="WIyWlLk6GJQsqaUBKTNV-1" source="xAAVF2irVC5-viqiM9Qj-44" target="xAAVF2irVC5-viqiM9Qj-46">
          <mxGeometry relative="1" as="geometry" />
        </mxCell>
        <mxCell id="xAAVF2irVC5-viqiM9Qj-44" value="Ticket a cocina" style="rounded=1;whiteSpace=wrap;html=1;glass=0;strokeWidth=1;shadow=0;arcSize=17;" vertex="1" parent="WIyWlLk6GJQsqaUBKTNV-1">
          <mxGeometry x="288" y="740" width="120" height="60" as="geometry" />
        </mxCell>
        <mxCell id="xAAVF2irVC5-viqiM9Qj-49" value="" style="edgeStyle=orthogonalEdgeStyle;rounded=0;orthogonalLoop=1;jettySize=auto;html=1;" edge="1" parent="WIyWlLk6GJQsqaUBKTNV-1" source="xAAVF2irVC5-viqiM9Qj-46" target="xAAVF2irVC5-viqiM9Qj-48">
          <mxGeometry relative="1" as="geometry" />
        </mxCell>
        <mxCell id="xAAVF2irVC5-viqiM9Qj-50" value="Si" style="edgeLabel;html=1;align=center;verticalAlign=middle;resizable=0;points=[];" vertex="1" connectable="0" parent="xAAVF2irVC5-viqiM9Qj-49">
          <mxGeometry x="-0.0944" relative="1" as="geometry">
            <mxPoint x="12" as="offset" />
          </mxGeometry>
        </mxCell>
        <mxCell id="xAAVF2irVC5-viqiM9Qj-51" style="edgeStyle=orthogonalEdgeStyle;rounded=0;orthogonalLoop=1;jettySize=auto;html=1;" edge="1" parent="WIyWlLk6GJQsqaUBKTNV-1" source="xAAVF2irVC5-viqiM9Qj-46">
          <mxGeometry relative="1" as="geometry">
            <mxPoint x="440" y="880" as="targetPoint" />
          </mxGeometry>
        </mxCell>
        <mxCell id="xAAVF2irVC5-viqiM9Qj-46" value="¿Cocina termino comanda?" style="rhombus;whiteSpace=wrap;html=1;rounded=1;glass=0;strokeWidth=1;shadow=0;arcSize=6;" vertex="1" parent="WIyWlLk6GJQsqaUBKTNV-1">
          <mxGeometry x="308" y="840" width="80" height="80" as="geometry" />
        </mxCell>
        <mxCell id="xAAVF2irVC5-viqiM9Qj-55" value="" style="edgeStyle=orthogonalEdgeStyle;rounded=0;orthogonalLoop=1;jettySize=auto;html=1;" edge="1" parent="WIyWlLk6GJQsqaUBKTNV-1" source="xAAVF2irVC5-viqiM9Qj-48" target="xAAVF2irVC5-viqiM9Qj-54">
          <mxGeometry relative="1" as="geometry" />
        </mxCell>
        <mxCell id="xAAVF2irVC5-viqiM9Qj-48" value="Enviar notificación al cliente" style="rounded=1;whiteSpace=wrap;html=1;glass=0;strokeWidth=1;shadow=0;arcSize=17;" vertex="1" parent="WIyWlLk6GJQsqaUBKTNV-1">
          <mxGeometry x="288" y="960" width="120" height="60" as="geometry" />
        </mxCell>
        <mxCell id="xAAVF2irVC5-viqiM9Qj-52" value="1" style="ellipse;whiteSpace=wrap;html=1;aspect=fixed;" vertex="1" parent="WIyWlLk6GJQsqaUBKTNV-1">
          <mxGeometry x="440" y="870" width="20" height="20" as="geometry" />
        </mxCell>
        <mxCell id="xAAVF2irVC5-viqiM9Qj-53" value="No" style="edgeLabel;html=1;align=center;verticalAlign=middle;resizable=0;points=[];" vertex="1" connectable="0" parent="WIyWlLk6GJQsqaUBKTNV-1">
          <mxGeometry x="237.49999999999977" y="430.0000000000002" as="geometry">
            <mxPoint x="173" y="438" as="offset" />
          </mxGeometry>
        </mxCell>
        <mxCell id="xAAVF2irVC5-viqiM9Qj-54" value="Fin" style="ellipse;whiteSpace=wrap;html=1;rounded=1;glass=0;strokeWidth=1;shadow=0;arcSize=17;" vertex="1" parent="WIyWlLk6GJQsqaUBKTNV-1">
          <mxGeometry x="628" y="950" width="80" height="80" as="geometry" />
        </mxCell>
      </root>
    </mxGraphModel>
  </diagram>
</mxfile>
